<svg id="Layer_1" data-name="Layer 1" xmlns="http://www.w3.org/2000/svg" viewBox="0 0 652.84 201.3"><title>MomLogo_header</title><polygon points="68.74 150.38 36.84 118.64 36.84 167.73 68.74 201.31 99.69 167.73 99.69 119.43 68.74 150.38" fill="#e04403"/><polygon points="68.27 0 0 68.27 0.23 68.27 35.93 68.27 36.06 68.27 36.06 68.39 67.88 99.5 98.92 68.27 134.62 68.27 136.53 68.27 68.27 0" fill="#e04403"/><path d="M312.59,192.26c-8.7,0-16.06-7.55-16.06-16.47a16.53,16.53,0,0,1,29.4-10.49l.25.31-3.35,3.19-.29-.39a11.77,11.77,0,0,0-21.3,7.25c0,6.51,5.42,12.21,11.6,12.21,4.22,0,9.23-3.6,9.68-8.33h-8v-4.39h13.13v1.66C327.67,185.76,321.33,192.26,312.59,192.26Z" transform="translate(-6.98 -12.9)" fill="#004a98"/><path d="M376.67,191.6h-14.1V159.81h4.71v27.41h9.39Z" transform="translate(-6.98 -12.9)" fill="#004a98"/><path d="M439.37,191.6h-5.09l-3.53-7.75H417.11l-3.53,7.75H408.5l15.43-33.7Zm-20.28-12.14h9.69l-4.85-11Z" transform="translate(-6.98 -12.9)" fill="#004a98"/><path d="M480.54,192.26a10.13,10.13,0,0,1-10-9l-.05-.39,4.81-1v.54a5.24,5.24,0,0,0,1.5,3.79,5.63,5.63,0,0,0,4.06,1.64,5.39,5.39,0,0,0,5.28-5.6c0-3.11-2.5-4.41-5.07-5.47l-2.14-.91c-3.45-1.49-7-3.63-7-8.23,0-5.47,4.92-8.43,9.54-8.43a9.21,9.21,0,0,1,8.33,4.9l.21.36-3.81,2.28-.22-.37a4.85,4.85,0,0,0-4.59-2.7c-2.28,0-4.74,1.51-4.74,4,0,1.68,1.32,3,4,4l2.22.87c3.93,1.54,7.94,3.9,7.94,9.71A10,10,0,0,1,480.54,192.26Z" transform="translate(-6.98 -12.9)" fill="#004a98"/><path d="M534.46,192.26a10.12,10.12,0,0,1-10-9l-.05-.39,4.8-1v.54a5.2,5.2,0,0,0,1.5,3.79,5.61,5.61,0,0,0,4.06,1.64,5.39,5.39,0,0,0,5.28-5.6c0-3.11-2.51-4.41-5.07-5.47l-2.14-.91c-3.46-1.49-7-3.63-7-8.23,0-5.47,4.91-8.43,9.54-8.43a9.22,9.22,0,0,1,8.33,4.9l.2.36-3.8,2.28-.22-.37a4.87,4.87,0,0,0-4.6-2.7c-2.28,0-4.74,1.51-4.74,4,0,1.68,1.32,3,4,4l2.21.87c3.93,1.54,7.95,3.9,7.95,9.71A10,10,0,0,1,534.46,192.26Z" transform="translate(-6.98 -12.9)" fill="#004a98"/><polygon points="468.13 105.09 430.73 65.94 430.73 123.39 438.94 123.39 438.94 86.81 476.35 125.63 476.35 68.28 468.13 68.28 468.13 105.09" fill="#004a98"/><polygon points="378.37 123.15 418.01 123.15 418.01 114.93 386.64 114.93 386.64 99.82 418.01 99.82 418.01 91.61 386.64 91.61 386.64 76.5 418.01 76.5 418.01 68.28 378.37 68.28 378.37 123.15" fill="#004a98"/><polygon points="490.85 68.28 486.68 68.28 486.68 76.5 490.85 76.5 503.11 76.5 503.11 119.23 503.11 123.39 511.33 123.39 511.33 119.23 511.33 76.5 523.64 76.5 527.81 76.5 527.81 68.28 523.64 68.28 490.85 68.28" fill="#004a98"/><path d="M276.24,80.71A27.8,27.8,0,1,0,304,108.5,27.83,27.83,0,0,0,276.24,80.71Zm19.61,27.79a19.61,19.61,0,1,1-19.61-19.6A19.63,19.63,0,0,1,295.85,108.5Z" transform="translate(-6.98 -12.9)" fill="#004a98"/><path d="M582.34,113.27a14.89,14.89,0,0,1-29.76.64V81.18h-8.27v32.09a23.13,23.13,0,0,0,46.26,0V81.18h-8.24Z" transform="translate(-6.98 -12.9)" fill="#004a98"/><polygon points="218.09 68.28 202.27 104.91 186.45 68.28 174.52 68.28 174.52 123.39 182.74 123.39 182.74 80.4 202.27 125.63 221.81 80.4 221.81 123.39 230.03 123.39 230.03 68.28 218.09 68.28" fill="#004a98"/><polygon points="352.08 68.28 336.26 104.91 320.44 68.28 308.5 68.28 308.5 123.39 316.72 123.39 316.72 80.4 336.26 125.63 355.8 80.4 355.8 123.39 364.01 123.39 364.01 68.28 352.08 68.28" fill="#004a98"/><polygon points="640.9 68.28 625.08 104.91 609.26 68.28 597.32 68.28 597.32 123.39 605.54 123.39 605.54 80.4 625.08 125.63 644.62 80.4 644.62 123.39 652.84 123.39 652.84 68.28 640.9 68.28" fill="#004a98"/></svg>